<?xml version="1.0" encoding="utf-8"?>
<!-- Generator: Adobe Illustrator 16.0.0, SVG Export Plug-In . SVG Version: 6.00 Build 0)  -->
<!DOCTYPE svg PUBLIC "-//W3C//DTD SVG 1.1//EN" "http://www.w3.org/Graphics/SVG/1.1/DTD/svg11.dtd">
<svg version="1.1" id="Layer_1" xmlns="http://www.w3.org/2000/svg" xmlns:xlink="http://www.w3.org/1999/xlink" x="0px" y="0px"
	 width="512px" height="512px" viewBox="0 0 512 512" enable-background="new 0 0 512 512" xml:space="preserve">
<g>
	<path d="M256,256c70.75,0,128-57.313,128-128S326.75,0,256,0c-70.688,0-128,57.313-128,128S185.313,256,256,256z M224,64
		c18.406,18.453,32,64,128,64c0,52.938-43.063,96-96,96s-96-43.063-96-96C160,128,197.25,105.469,224,64z"/>
	<polygon points="256,288 224,320 256,448 288,320 	"/>
	<path d="M384,288h-82.75l22.188,22.188L273,512h111h32c17.688,0,32-14.313,32-32V352C448,316.656,419.375,288,384,288z"/>
	<path d="M210.75,288H128c-35.313,0-64,28.656-64,64v128c0,17.688,14.313,32,32,32h32h111.031l-50.469-201.813L210.75,288z"/>
</g>
</svg>
